<svg width="246" height="203" viewBox="0 0 246 203" fill="none" xmlns="http://www.w3.org/2000/svg">
<path d="M21.6364 174.182C18.7576 174.182 16.0152 173.955 13.4091 173.5C10.803 173.076 8.51515 172.485 6.54545 171.727L12 153.909C14.0606 154.636 15.9394 155.106 17.6364 155.318C19.3636 155.53 20.8333 155.409 22.0455 154.955C23.2879 154.5 24.1818 153.636 24.7273 152.364L25.2727 151.091L0.727273 78.1818H26.9091L38.1818 126.545H38.9091L50.3636 78.1818H76.7273L51.2727 153.818C50 157.667 48.1515 161.121 45.7273 164.182C43.3333 167.273 40.1818 169.712 36.2727 171.5C32.3636 173.288 27.4848 174.182 21.6364 174.182ZM202 78.1818V96.3636H156V78.1818H202ZM164.909 61.4545H190V125.545C190 126.515 190.167 127.333 190.5 128C190.833 128.636 191.348 129.121 192.045 129.455C192.742 129.758 193.636 129.909 194.727 129.909C195.485 129.909 196.364 129.818 197.364 129.636C198.394 129.455 199.152 129.303 199.636 129.182L203.273 146.818C202.152 147.152 200.545 147.561 198.455 148.045C196.394 148.53 193.939 148.848 191.091 149C185.333 149.303 180.5 148.712 176.591 147.227C172.682 145.712 169.742 143.333 167.773 140.091C165.803 136.848 164.848 132.788 164.909 127.909V61.4545ZM212.239 148V78.1818H237.33V148H212.239ZM224.784 70.9091C221.39 70.9091 218.481 69.7879 216.057 67.5455C213.633 65.303 212.42 62.6061 212.42 59.4545C212.42 56.303 213.633 53.6061 216.057 51.3636C218.481 49.1212 221.39 48 224.784 48C228.208 48 231.117 49.1212 233.511 51.3636C235.936 53.6061 237.148 56.303 237.148 59.4545C237.148 62.6061 235.936 65.303 233.511 67.5455C231.117 69.7879 228.208 70.9091 224.784 70.9091Z" fill="#3A5E77"/>
<path d="M95.7839 140.586C89.7693 136.182 85.4274 131.238 82.7583 125.753C80.1314 120.261 79.2288 114.493 80.0504 108.446C80.9144 102.394 83.5662 96.3355 88.006 90.272C92.2668 84.453 97.1641 80.2269 102.698 77.5935C108.232 74.9601 114.024 73.9997 120.075 74.7121C126.126 75.4245 132.061 77.9111 137.88 82.1719C142.134 85.287 145.502 88.7667 147.982 92.6112C150.463 96.4558 152.004 100.532 152.605 104.841C153.224 109.125 152.886 113.535 151.593 118.071C150.299 122.608 148.015 127.113 144.738 131.587L141.301 136.282L90.9841 99.4384L99.1477 88.2895L130.834 111.491C131.991 109.86 132.614 108.137 132.702 106.324C132.833 104.504 132.476 102.76 131.633 101.09C130.832 99.4145 129.588 97.959 127.901 96.7238C126.263 95.5243 124.5 94.7778 122.611 94.4843C120.741 94.1664 118.942 94.3143 117.216 94.9281C115.514 95.5598 114.039 96.6768 112.79 98.2791L103.982 110.308C102.658 112.117 101.855 114.009 101.575 115.982C101.294 117.955 101.568 119.864 102.395 121.709C103.222 123.554 104.638 125.211 106.643 126.679C108.037 127.699 109.451 128.435 110.887 128.885C112.347 129.353 113.761 129.525 115.13 129.4C116.516 129.25 117.789 128.793 118.95 128.029L137.434 141.563C133.934 145.009 129.942 147.307 125.458 148.455C120.992 149.579 116.221 149.504 111.145 148.229C106.112 146.947 100.992 144.399 95.7839 140.586Z" fill="#3A5E77"/>
<path d="M156.286 82.4175C156.411 82.4242 156.536 82.4308 156.665 82.4377C157.407 82.6468 157.852 83.1164 158.261 83.741C158.345 83.9012 158.428 84.0615 158.514 84.2266C160.254 87.4333 162.521 90.3678 164.783 93.2202C165.086 93.6033 165.387 93.9877 165.683 94.3765C165.783 94.5067 165.783 94.5067 165.884 94.6395C166.384 95.3753 166.495 95.9924 166.359 96.8711C166.083 97.6352 165.685 98.1029 164.95 98.4517C164.269 98.7103 163.571 98.8753 162.855 99.0039C164.332 100.908 165.989 102.543 167.883 104.031C168.316 104.372 168.747 104.716 169.178 105.06C169.284 105.142 169.39 105.225 169.499 105.31C170.222 105.889 170.678 106.361 170.901 107.288C170.946 108.156 170.777 108.687 170.282 109.401C168.933 110.615 166.523 110.329 164.836 110.277C167.118 113.257 170.186 115.425 173.341 117.403C174.224 117.964 174.63 118.337 174.872 119.389C174.935 120.085 174.777 120.641 174.434 121.246C173.451 122.351 171.575 122.644 170.168 122.77C168.626 122.846 167.104 122.844 165.598 122.465C166.359 123.479 167.171 124.432 168.035 125.359C168.123 125.453 168.21 125.548 168.301 125.644C168.992 126.36 169.756 126.98 170.533 127.6C170.792 127.809 171.05 128.02 171.308 128.232C172.917 129.548 174.6 130.724 176.349 131.848C176.567 131.989 176.567 131.989 176.788 132.133C177.073 132.317 177.358 132.5 177.645 132.68C178.368 133.15 178.885 133.49 179.156 134.348C179.262 135.039 179.246 135.666 178.966 136.309C178.379 137.022 177.985 137.328 177.071 137.556C176.972 137.581 176.873 137.606 176.771 137.632C176.009 137.816 175.242 137.969 174.472 138.109C174.321 138.136 174.321 138.136 174.167 138.164C170.454 138.795 166.581 138.615 162.925 137.763C162.771 137.727 162.617 137.692 162.459 137.656C162.083 137.569 161.708 137.482 161.332 137.395C161.334 137.511 161.335 137.628 161.337 137.748C161.352 138.849 161.364 139.949 161.371 141.05C161.375 141.615 161.381 142.181 161.389 142.747C161.398 143.293 161.402 143.839 161.404 144.386C161.406 144.594 161.408 144.802 161.413 145.01C161.443 146.622 161.443 146.622 161.072 147.349C160.257 147.759 159.456 147.704 158.557 147.692C158.36 147.692 158.163 147.692 157.961 147.692C157.545 147.692 157.13 147.689 156.714 147.684C156.183 147.678 155.652 147.677 155.121 147.679C154.613 147.679 154.104 147.676 153.596 147.673C153.406 147.673 153.215 147.673 153.019 147.673C152.842 147.67 152.664 147.668 152.482 147.666C152.326 147.664 152.17 147.663 152.01 147.662C151.51 147.591 151.221 147.448 150.82 147.145C150.656 146.653 150.65 146.3 150.651 145.783C150.651 145.504 150.651 145.504 150.651 145.219C150.651 145.018 150.652 144.817 150.653 144.61C150.653 144.402 150.654 144.195 150.654 143.987C150.654 143.441 150.656 142.894 150.658 142.348C150.659 141.791 150.66 141.233 150.661 140.676C150.662 139.582 150.665 138.488 150.668 137.395C150.519 137.428 150.519 137.428 150.366 137.461C149.909 137.562 149.452 137.663 148.995 137.763C148.838 137.798 148.681 137.832 148.52 137.868C144.206 138.812 139.803 138.662 135.5 137.709C135.398 137.687 135.295 137.664 135.19 137.642C134.318 137.43 133.691 137.048 133.091 136.385C132.762 135.701 132.695 135.094 132.844 134.348C133.289 133.259 134.025 132.846 135.015 132.262C136.396 131.417 137.698 130.517 138.977 129.524C139.23 129.329 139.486 129.139 139.744 128.95C140.62 128.308 141.444 127.637 142.243 126.901C142.564 126.606 142.891 126.32 143.222 126.035C144.457 124.951 145.444 123.795 146.402 122.465C146.315 122.487 146.228 122.509 146.138 122.531C143.582 123.09 140.346 123.017 138.023 121.703C137.401 121.066 137.235 120.638 137.214 119.761C137.208 119.604 137.203 119.448 137.197 119.287C137.282 118.659 137.459 118.378 137.871 117.895C138.292 117.577 138.74 117.313 139.195 117.047C140.662 116.154 142.02 115.166 143.355 114.086C143.453 114.007 143.55 113.929 143.65 113.848C145.657 112.279 145.657 112.279 147.164 110.277C146.991 110.283 146.818 110.288 146.639 110.293C143.062 110.371 143.062 110.371 141.926 109.561C141.393 109.012 141.067 108.462 141.041 107.688C141.123 106.832 141.389 106.239 142.032 105.659C142.267 105.469 142.506 105.282 142.746 105.098C143.08 104.841 143.413 104.584 143.746 104.326C143.881 104.222 143.881 104.222 144.019 104.115C145.13 103.243 146.152 102.273 147.164 101.289C147.306 101.152 147.306 101.152 147.45 101.011C147.923 100.546 148.366 100.087 148.754 99.5466C148.829 99.4431 148.905 99.3396 148.982 99.233C149.062 99.1196 149.062 99.1196 149.145 99.0039C148.968 98.9677 148.968 98.9677 148.787 98.9307C147.59 98.6624 146.54 98.3934 145.793 97.3662C145.567 96.6331 145.439 95.9166 145.786 95.2011C146.233 94.5157 146.709 93.8735 147.231 93.2434C149.688 90.2134 151.974 86.9965 153.883 83.591C154.247 83.0483 154.621 82.6687 155.239 82.4353C155.597 82.3918 155.926 82.3917 156.286 82.4175Z" fill="white"/>
</svg>
